<svg xmlns="http://www.w3.org/2000/svg" xmlns:xlink="http://www.w3.org/1999/xlink" width="156" zoomAndPan="magnify" viewBox="0 0 116.88 30.000001" height="40" preserveAspectRatio="xMidYMid meet" version="1.0"><defs><g/></defs><g fill="#000000" fill-opacity="1"><g transform="translate(13.983383, 20.161416)"><g><path d="M 3.769531 0.179688 C 6.097656 0.179688 7.632812 -1.398438 8.917969 -4.066406 C 9.03125 -4.289062 8.105469 -4.921875 7.949219 -4.605469 C 6.660156 -2.03125 5.171875 -1.785156 4.378906 -1.828125 C 3.453125 -1.898438 3.566406 -3.25 4.019531 -5.125 C 4.246094 -6.050781 4.582031 -7.136719 4.898438 -8.21875 L 6.640625 -8.21875 C 7.046875 -8.421875 7.382812 -9.753906 6.84375 -10.207031 L 5.441406 -10.207031 C 5.894531 -11.808594 6.300781 -13.1875 6.796875 -14.722656 C 6.59375 -15.605469 3.679688 -15.785156 3.230469 -15.242188 C 2.890625 -14.292969 2.214844 -12.082031 1.625 -10.207031 L 0.859375 -10.207031 C 0.382812 -10.117188 0.046875 -8.46875 0.519531 -8.21875 L 1.082031 -8.21875 C -0.0664062 -3.703125 -0.632812 0.179688 3.769531 0.179688 Z M 3.769531 0.179688 "/></g></g></g><g fill="#000000" fill-opacity="1"><g transform="translate(21.615864, 20.161416)"><g><path d="M 6.390625 -9.597656 C 3.117188 -9.640625 0.585938 -7.519531 0.292969 -4.378906 C 0.0664062 -1.988281 1.492188 0.203125 5.398438 0.226562 C 8.152344 0.25 10.320312 -0.878906 12.082031 -4.085938 C 12.195312 -4.289062 11.246094 -4.921875 11.085938 -4.605469 C 9.914062 -2.371094 7.902344 -1.828125 6.617188 -1.851562 C 4.992188 -1.875 4.066406 -2.394531 3.953125 -3.589844 C 6.503906 -3.207031 8.582031 -3.996094 9.347656 -5.601562 C 10.296875 -7.382812 9.324219 -9.550781 6.390625 -9.597656 Z M 6.074219 -7.453125 C 6.414062 -7.40625 6.503906 -7.046875 6.367188 -6.59375 C 6.164062 -5.871094 5.375 -4.992188 4.066406 -5.035156 C 4.402344 -6.503906 5.261719 -7.566406 6.074219 -7.453125 Z M 6.074219 -7.453125 "/></g></g></g><g fill="#000000" fill-opacity="1"><g transform="translate(32.40972, 20.161416)"><g><path d="M 4.269531 0.292969 C 5.894531 0.292969 7.25 -0.179688 7.972656 -1.082031 C 9.574219 -1.105469 11.132812 -1.714844 12.351562 -4.085938 C 12.441406 -4.269531 11.515625 -4.898438 11.382812 -4.628906 C 10.613281 -3.070312 9.507812 -2.394531 8.582031 -2.324219 C 8.941406 -4.335938 8.378906 -5.917969 7.699219 -8.535156 C 9.324219 -10.90625 5.894531 -11.5625 3.882812 -9.550781 C 2.28125 -7.949219 0.8125 -5.554688 0 -4.019531 C -0.203125 -3.636719 0.769531 -3.140625 0.972656 -3.5 C 1.695312 -4.789062 3.273438 -7.339844 4.3125 -8.355469 C 4.695312 -6.863281 4.96875 -5.375 5.082031 -3.679688 C 4.378906 -3.546875 4.109375 -2.597656 4.695312 -2.007812 C 4.539062 -1.875 4.289062 -1.804688 4.085938 -1.804688 C 3.546875 -1.828125 3.140625 -2.304688 3.003906 -2.6875 C 2.347656 -2.914062 1.265625 -2.324219 1.0625 -1.625 C 1.625 -0.179688 3.160156 0.292969 4.269531 0.292969 Z M 4.269531 0.292969 "/></g></g></g><g fill="#000000" fill-opacity="1"><g transform="translate(43.474545, 20.161416)"><g><path d="M 3.769531 0.179688 C 6.097656 0.179688 7.632812 -1.398438 8.917969 -4.066406 C 9.03125 -4.289062 8.105469 -4.921875 7.949219 -4.605469 C 6.660156 -2.03125 5.171875 -1.785156 4.378906 -1.828125 C 3.453125 -1.898438 3.566406 -3.25 4.019531 -5.125 C 4.246094 -6.050781 4.582031 -7.136719 4.898438 -8.21875 L 6.640625 -8.21875 C 7.046875 -8.421875 7.382812 -9.753906 6.84375 -10.207031 L 5.441406 -10.207031 C 5.894531 -11.808594 6.300781 -13.1875 6.796875 -14.722656 C 6.59375 -15.605469 3.679688 -15.785156 3.230469 -15.242188 C 2.890625 -14.292969 2.214844 -12.082031 1.625 -10.207031 L 0.859375 -10.207031 C 0.382812 -10.117188 0.046875 -8.46875 0.519531 -8.21875 L 1.082031 -8.21875 C -0.0664062 -3.703125 -0.632812 0.179688 3.769531 0.179688 Z M 3.769531 0.179688 "/></g></g></g><g fill="#000000" fill-opacity="1"><g transform="translate(51.107026, 20.161416)"><g><path d="M 6.140625 -9.574219 C 4.605469 -9.347656 2.710938 -8.378906 1.46875 -6.75 C -0.722656 -4.019531 -0.65625 0.25 2.867188 0.179688 C 4.695312 0.15625 5.714844 -0.902344 6.414062 -2.054688 C 6.121094 -1.175781 5.824219 -0.359375 5.511719 0.519531 C 3.027344 0.992188 0.542969 1.511719 0.179688 4.042969 C -0.046875 5.691406 1.265625 6.707031 3.117188 6.707031 C 6.773438 6.707031 7.453125 4.246094 8.398438 1.308594 C 10.613281 0.453125 11.855469 -0.902344 13.59375 -4.042969 C 13.75 -4.3125 12.78125 -4.898438 12.644531 -4.628906 C 11.335938 -2.234375 10.410156 -1.015625 8.851562 -0.359375 C 9.347656 -2.121094 9.597656 -3.523438 10.296875 -5.757812 C 10.117188 -6.300781 7.722656 -6.910156 7.179688 -6.367188 C 6.863281 -5.554688 6.4375 -4.5625 6.140625 -3.972656 C 5.304688 -2.28125 4.3125 -1.714844 3.839844 -2.03125 C 3.453125 -2.304688 3.386719 -3.25 3.996094 -4.71875 C 4.628906 -6.253906 5.804688 -7.453125 7.179688 -7.519531 C 8.332031 -7.585938 9.800781 -7.269531 10.726562 -6.503906 C 11.15625 -6.390625 12.195312 -7.746094 12.011719 -8.175781 C 10.363281 -9.621094 7.789062 -9.824219 6.140625 -9.574219 Z M 5.058594 2.214844 C 4.945312 2.664062 4.832031 3.117188 4.695312 3.5 C 4.066406 5.082031 2.621094 4.742188 3.070312 3.589844 C 3.273438 3.070312 3.972656 2.507812 5.058594 2.214844 Z M 5.058594 2.214844 "/></g></g></g><g fill="#000000" fill-opacity="1"><g transform="translate(63.41382, 20.161416)"><g><path d="M 0.972656 -3.5 C 1.804688 -4.945312 2.574219 -6.640625 2.980469 -8.085938 C 3.386719 -7.699219 4.066406 -7.160156 3.613281 -6.414062 C 2.824219 -5.125 1.828125 -3.589844 1.804688 -2.214844 C 1.785156 -0.722656 2.777344 0.226562 4.855469 0.179688 C 7.992188 0.113281 9.777344 -1.988281 10.816406 -4.085938 C 10.929688 -4.289062 10.027344 -4.898438 9.867188 -4.628906 C 8.695312 -2.460938 7.089844 -1.917969 6.230469 -1.898438 C 5.53125 -1.875 5.375 -2.304688 5.511719 -2.867188 C 5.691406 -3.636719 6.300781 -4.605469 7.023438 -5.554688 C 8.445312 -7.429688 5.917969 -8.671875 4.402344 -10.046875 C 5.351562 -13.617188 -0.0898438 -12.011719 2.03125 -8.695312 C 1.46875 -6.75 0.8125 -5.511719 0 -4.019531 C -0.203125 -3.636719 0.769531 -3.140625 0.972656 -3.5 Z M 0.972656 -3.5 "/></g></g></g><g fill="#000000" fill-opacity="1"><g transform="translate(72.943138, 20.161416)"><g><path d="M 6.121094 -9.597656 C 3.703125 -9.234375 0.496094 -7 0.0234375 -3.433594 C -0.382812 -0.453125 1.46875 0.203125 2.867188 0.179688 C 4.921875 0.15625 5.9375 -1.21875 6.640625 -2.507812 C 6.457031 -0.878906 6.953125 0.179688 8.152344 0.179688 C 10.363281 0.179688 12.328125 -1.535156 13.683594 -4.066406 C 13.820312 -4.289062 12.871094 -4.898438 12.714844 -4.582031 C 11.992188 -3.09375 10.566406 -1.917969 9.890625 -1.898438 C 9.4375 -1.875 9.214844 -2.394531 9.527344 -3.65625 C 9.734375 -4.492188 9.957031 -5.195312 10.140625 -5.78125 C 9.867188 -6.300781 7.746094 -6.910156 7.023438 -6.367188 C 6.414062 -4.71875 4.808594 -1.128906 3.769531 -2.101562 C 3.433594 -2.417969 3.453125 -3.363281 3.953125 -4.71875 C 4.515625 -6.253906 5.804688 -7.453125 7.179688 -7.519531 C 8.332031 -7.585938 9.664062 -7.226562 10.566406 -6.503906 C 10.972656 -6.390625 12.058594 -7.675781 11.855469 -8.175781 C 10.476562 -9.574219 7.769531 -9.84375 6.121094 -9.597656 Z M 6.121094 -9.597656 "/></g></g></g><g fill="#000000" fill-opacity="1"><g transform="translate(85.340264, 20.161416)"><g><path d="M 13.707031 0.179688 C 16.304688 0.046875 17.90625 -2.28125 18.878906 -4.066406 C 19.011719 -4.289062 18.066406 -4.921875 17.90625 -4.605469 C 17.046875 -2.824219 15.875 -1.898438 15.308594 -1.898438 C 14.136719 -1.898438 15.421875 -5.011719 15.851562 -6.660156 C 16.324219 -8.445312 15.761719 -9.664062 13.773438 -9.664062 C 12.398438 -9.664062 11.019531 -8.898438 10.117188 -8.015625 C 10.140625 -9.101562 9.484375 -9.664062 8.355469 -9.664062 C 7.136719 -9.664062 5.601562 -8.671875 4.742188 -7.972656 C 4.808594 -8.195312 5.011719 -8.851562 5.101562 -9.078125 C 4.71875 -9.824219 2.324219 -9.980469 1.714844 -9.484375 C 0.769531 -6.503906 -0.0664062 -3.410156 -0.835938 -0.429688 C -0.789062 0.453125 2.460938 0.359375 2.800781 -0.25 C 3.273438 -2.324219 3.703125 -4.109375 4.335938 -6.230469 C 4.921875 -6.796875 5.511719 -7.113281 5.960938 -7.160156 C 6.4375 -7.203125 6.527344 -6.863281 6.414062 -6.4375 C 5.894531 -4.378906 5.398438 -2.4375 4.945312 -0.339844 C 5.238281 0.453125 8.242188 0.316406 8.582031 -0.203125 C 8.988281 -1.964844 9.640625 -4.808594 10.09375 -6.367188 C 10.589844 -6.820312 11.085938 -7.179688 11.585938 -7.203125 C 12.171875 -7.226562 12.238281 -6.820312 12.101562 -6.253906 C 11.878906 -5.285156 11.402344 -3.433594 11.246094 -2.730469 C 10.839844 -0.949219 11.402344 0.292969 13.707031 0.179688 Z M 13.707031 0.179688 "/></g></g></g></svg>